<?xml version="1.0" encoding="UTF-8" standalone="no"?>
<!DOCTYPE svg PUBLIC "-//W3C//DTD SVG 1.1//EN" "http://www.w3.org/Graphics/SVG/1.1/DTD/svg11.dtd">
<svg width="100%" height="100%" viewBox="0 0 2100 2100" version="1.1" xmlns="http://www.w3.org/2000/svg" xmlns:xlink="http://www.w3.org/1999/xlink" xml:space="preserve" xmlns:serif="http://www.serif.com/" style="fill-rule:evenodd;clip-rule:evenodd;stroke-linejoin:round;stroke-miterlimit:2;">
    <g transform="matrix(1.07919,0,0,1.07919,-59.9439,-178.115)">
        <path d="M492,1835L1557,1835L1503,1411L1742,1167L1694,847L1458,728L1214,822L1210,553L1024,441L838,540L847,835L604,736L336,859L315,1213L548,1384L492,1835ZM600,1250L431,1121L473,928L609,884L776,966L762,1180L600,1250ZM1325,904L1480,840L1612,939L1620,1138L1481,1227L1318,1163L1325,914L1325,904Z"/>
    </g>
    <g transform="matrix(1.07919,0,0,1.07919,-59.9439,-178.115)">
        <path d="M696,1835L1129,1787L1353.96,1730.52L1438,1619L1503,1411L1567.74,1171.46L1620,1138L1612,939L1552.6,894.446L1492.72,745.506L1694,847L1742,1167L1503,1411L1557,1835L696,1835Z" style="fill:rgb(50,50,50);"/>
    </g>
</svg>
