<?xml version="1.0" encoding="UTF-8" standalone="no"?>
<!DOCTYPE svg PUBLIC "-//W3C//DTD SVG 1.1//EN" "http://www.w3.org/Graphics/SVG/1.1/DTD/svg11.dtd">
<svg width="100%" height="100%" viewBox="0 0 2100 2100" version="1.1" xmlns="http://www.w3.org/2000/svg" xmlns:xlink="http://www.w3.org/1999/xlink" xml:space="preserve" xmlns:serif="http://www.serif.com/" style="fill-rule:evenodd;clip-rule:evenodd;stroke-linejoin:round;stroke-miterlimit:2;">
    <g transform="matrix(1,0,0,1,1.42109e-13,-26)">
        <path d="M406,876L254,1182L291,1395L553,1484L1031,1079L901,1423L720,1598L666,1859L1794,1861L1788,1349L1704,1002L1512,658L1259,496L1050,463L993,291L816,445L638,306L607,533L406,876ZM386,1076L326,1212L356,1344L499,1126L386,1076ZM740,608L605,714L603,868L763,714L740,608Z"/>
    </g>
    <g transform="matrix(1,0,0,1,1.42109e-13,-26)">
        <path d="M911.561,1859.43L1794,1861L1788,1349L1704,1002L1512,658L1363.35,562.816L1491,674L1635,1008L1679,1349L1644.47,1658.8L1532.24,1777.74L911.561,1859.43Z" style="fill:rgb(25,25,25);"/>
    </g>
</svg>
