<?xml version="1.0" encoding="UTF-8" standalone="no"?>
<!DOCTYPE svg PUBLIC "-//W3C//DTD SVG 1.1//EN" "http://www.w3.org/Graphics/SVG/1.1/DTD/svg11.dtd">
<svg width="100%" height="100%" viewBox="0 0 2100 2100" version="1.1" xmlns="http://www.w3.org/2000/svg" xmlns:xlink="http://www.w3.org/1999/xlink" xml:space="preserve" xmlns:serif="http://www.serif.com/" style="fill-rule:evenodd;clip-rule:evenodd;stroke-linejoin:round;stroke-miterlimit:2;">
    <g transform="matrix(1.03828,0,0,1.03828,-31.2324,6.57103)">
        <path d="M1050,1796L1580,1769L1522,1528L1448,1414L1619,1206L1742.33,627.456L1821.03,610.981L1802.62,384.391L1612.05,515.071L1654.82,592.432L1409,1050L1434.86,504.39L1515.31,461.064L1426.29,260.376L1271.75,419.002L1330.52,493.829L1176,1020L1096.54,467.578L1174.75,409.56L1052.24,213.923L944.205,404.172L1010.93,468.645L921,1013L762.155,498.796L833.745,428.706L680.884,243.851L594.373,457.407L670.447,509.498L690,1050L431.789,600.835L500.881,519.773L285.429,385.234L261.709,623.887L347.71,636.903L484,1204L627,1411L557,1526L514,1765L1050,1796Z"/>
    </g>
    <path d="M618.942,1845.87L1058.96,1871.32L1609.25,1843.28L1549.03,1593.06L1472.19,1474.69L1649.74,1258.73L1769.53,696.8L1588,1172L1415,1455L1479,1592L1473,1687L1390,1758L1022,1813L618.942,1845.87Z" style="fill:rgb(50,50,50);"/>
</svg>
