<?xml version="1.0" encoding="UTF-8" standalone="no"?>
<!DOCTYPE svg PUBLIC "-//W3C//DTD SVG 1.1//EN" "http://www.w3.org/Graphics/SVG/1.1/DTD/svg11.dtd">
<svg width="100%" height="100%" viewBox="0 0 2100 2100" version="1.1" xmlns="http://www.w3.org/2000/svg" xmlns:xlink="http://www.w3.org/1999/xlink" xml:space="preserve" xmlns:serif="http://www.serif.com/" style="fill-rule:evenodd;clip-rule:evenodd;stroke-linejoin:round;stroke-miterlimit:2;">
    <path d="M860,1580L436,1611L287,1800L1035,1814L1761,1807L1600,1606L1193,1584L1398,1381L1330,1239L1454,953L1320,670L1118,548L1183,391L1035,286L893,373L941,539L757,657L610,930L735,1234L653,1373L860,1580ZM970.814,794.591L893.078,838.341L946.717,946.724L1101.18,953.982L1163.5,881.848L1095.39,791.653L970.814,794.591Z" style="fill:white;"/>
    <path d="M688.694,1807.52L1024,1814L1761,1807L1600,1606L1193,1584L1520,1664L1604.99,1742.96L1236,1752L688.694,1807.52Z" style="fill:rgb(245,245,245);"/>
    <path d="M1193,1584L1398,1381L1330,1239L1454,953L1320,670L1163.83,575.68L1272,698L1326,950L1284,1228L1305,1369L1193,1584Z" style="fill:rgb(245,245,245);"/>
</svg>
