<?xml version="1.0" encoding="UTF-8" standalone="no"?>
<!DOCTYPE svg PUBLIC "-//W3C//DTD SVG 1.1//EN" "http://www.w3.org/Graphics/SVG/1.1/DTD/svg11.dtd">
<svg width="100%" height="100%" viewBox="0 0 2100 2100" version="1.1" xmlns="http://www.w3.org/2000/svg" xmlns:xlink="http://www.w3.org/1999/xlink" xml:space="preserve" xmlns:serif="http://www.serif.com/" style="fill-rule:evenodd;clip-rule:evenodd;stroke-linejoin:round;stroke-miterlimit:2;">
    <path d="M860,1580L436,1611L287,1800L1035,1814L1761,1807L1600,1606L1193,1584L1398,1381L1330,1239L1454,953L1320,670L1118,548L1183,391L1035,286L893,373L941,539L757,657L610,930L735,1234L653,1373L860,1580ZM970.814,794.591L893.078,838.341L946.717,946.724L1101.18,953.982L1163.5,881.848L1095.39,791.653L970.814,794.591Z" style="fill:white;"/>
    <path d="M653.547,1503.18L429.316,1519.58C403.646,1521.45 379.948,1534.04 364.013,1554.25L215.013,1743.25C193.463,1770.59 189.255,1807.77 204.152,1839.23C219.049,1870.69 250.481,1891 285.285,1891.65L1033.29,1905.65C1034.15,1905.67 1035.02,1905.67 1035.88,1905.66L1761.88,1898.66C1796.97,1898.32 1828.79,1877.99 1843.82,1846.29C1858.86,1814.58 1854.48,1777.08 1832.55,1749.69L1671.55,1548.69C1655.23,1528.32 1631.01,1515.88 1604.95,1514.47L1404.44,1503.63C1404.44,1503.63 1462.5,1446.13 1462.5,1446.13C1490.25,1418.66 1497.54,1376.63 1480.68,1341.41L1430.73,1237.11C1430.73,1237.11 1538.1,989.464 1538.1,989.464C1548.61,965.231 1548.15,937.643 1536.85,913.771L1402.85,630.771C1395.14,614.493 1382.81,600.845 1367.39,591.534C1367.39,591.534 1291.57,545.742 1232.83,510.267C1232.83,510.267 1267.69,426.065 1267.69,426.065C1284.05,386.554 1270.92,340.982 1236.04,316.237L1088.04,211.237C1058.11,190.004 1018.4,188.666 987.111,207.837L845.111,294.837C809.92,316.398 793.477,358.817 804.941,398.463L833.942,498.759C833.942,498.759 707.515,579.838 707.515,579.838C694.415,588.239 683.669,599.838 676.29,613.541L529.29,886.541C516.271,910.72 514.777,939.462 525.221,964.86L632.882,1226.69C608.634,1267.8 574.048,1326.42 574.048,1326.42C552.805,1362.43 558.619,1408.26 588.182,1437.82L653.547,1503.18ZM860,1580L436,1611L287,1800L1035,1814L1761,1807L1600,1606L1193,1584L1398,1381L1330,1239L1454,953L1320,670L1118,548L1183,391L1035,286L893,373L941,539L757,657L610,930L735,1234L653,1373L860,1580ZM970.814,794.591L893.078,838.341L946.717,946.724L1101.18,953.982L1163.5,881.848L1095.39,791.653L970.814,794.591Z"/>
    <path d="M688.694,1807.52L1024,1814L1761,1807L1600,1606L1193,1584L1520,1664L1604.99,1742.96L1236,1752L688.694,1807.52Z" style="fill:rgb(225,225,225);"/>
    <path d="M1193,1584L1398,1381L1330,1239L1454,953L1320,670L1163.83,575.68L1272,698L1326,950L1284,1228L1305,1369L1193,1584Z" style="fill:rgb(225,225,225);"/>
</svg>
