<?xml version="1.0" encoding="UTF-8" standalone="no"?>
<!DOCTYPE svg PUBLIC "-//W3C//DTD SVG 1.1//EN" "http://www.w3.org/Graphics/SVG/1.1/DTD/svg11.dtd">
<svg width="100%" height="100%" viewBox="0 0 2100 2100" version="1.1" xmlns="http://www.w3.org/2000/svg" xmlns:xlink="http://www.w3.org/1999/xlink" xml:space="preserve" xmlns:serif="http://www.serif.com/" style="fill-rule:evenodd;clip-rule:evenodd;stroke-linejoin:round;stroke-miterlimit:2;">
    <g transform="matrix(1.07919,0,0,1.07919,-59.9439,-178.115)">
        <path d="M492,1835L1557,1835L1503,1411L1742,1167L1694,847L1458,728L1214,822L1210,553L1024,441L838,540L847,835L604,736L336,859L315,1213L548,1384L492,1835ZM600,1250L431,1121L473,928L609,884L776,966L762,1180L600,1250ZM1325,904L1480,840L1612,939L1620,1138L1481,1227L1318,1163L1325,914L1325,904Z" style="fill:white;"/>
        <path d="M407.707,1824.53C404.706,1848.7 412.222,1872.99 428.345,1891.24C444.468,1909.49 467.649,1919.94 492,1919.94L1557,1919.94C1581.4,1919.94 1604.62,1909.45 1620.74,1891.14C1636.87,1872.83 1644.34,1848.47 1641.26,1824.27L1592.45,1441.06C1592.45,1441.06 1802.68,1226.44 1802.68,1226.44C1821.32,1207.41 1829.95,1180.74 1826,1154.4L1778,834.4C1773.91,807.143 1756.85,783.565 1732.24,771.156L1496.24,652.156C1474.83,641.357 1449.85,640.116 1427.46,648.738L1297.12,698.953C1296.06,627.743 1294.93,551.737 1294.93,551.737C1294.5,522.401 1278.95,495.368 1253.82,480.233L1067.82,368.233C1042.24,352.831 1010.45,351.99 984.091,366.019L798.091,465.019C769.554,480.208 752.113,510.278 753.099,542.59L758.117,707.069C758.117,707.069 636.048,657.337 636.048,657.337C614.318,648.484 589.895,649.015 568.569,658.802L300.569,781.802C272.047,794.892 253.067,822.642 251.209,853.97L230.209,1207.97C228.502,1236.75 241.505,1264.42 264.744,1281.48L457.566,1422.99C457.566,1422.99 407.707,1824.53 407.707,1824.53ZM492,1835L1557,1835L1503,1411L1742,1167L1694,847L1458,728L1214,822L1210,553L1024,441L838,540L847,835L604,736L336,859L315,1213L548,1384L492,1835ZM600,1250L431,1121L473,928L609,884L776,966L762,1180L600,1250ZM1325,904L1480,840L1612,939L1620,1138L1481,1227L1318,1163L1325,914L1325,904ZM611.985,1152.29L525.487,1086.27C525.487,1086.27 545.613,993.783 545.613,993.783C545.613,993.783 602.429,975.401 602.429,975.401C602.429,975.401 687.529,1017.19 687.529,1017.19C687.529,1017.19 680.631,1122.63 680.631,1122.63L611.985,1152.29ZM1408.64,961.36L1467.72,936.966C1467.72,936.966 1528.75,982.738 1528.75,982.738C1528.75,982.738 1533.17,1092.74 1533.17,1092.74C1533.17,1092.74 1471.7,1132.1 1471.7,1132.1C1471.7,1132.1 1404.58,1105.74 1404.58,1105.74L1408.64,961.36Z"/>
    </g>
    <g transform="matrix(1.07919,0,0,1.07919,-59.9439,-178.115)">
        <path d="M696,1835L1129,1787L1353.96,1730.52L1438,1619L1503,1411L1567.74,1171.46L1620,1138L1612,939L1552.6,894.446L1492.72,745.506L1694,847L1742,1167L1503,1411L1557,1835L696,1835Z" style="fill:rgb(225,225,225);"/>
    </g>
</svg>
