<?xml version="1.0" encoding="UTF-8" standalone="no"?>
<!DOCTYPE svg PUBLIC "-//W3C//DTD SVG 1.1//EN" "http://www.w3.org/Graphics/SVG/1.1/DTD/svg11.dtd">
<svg width="100%" height="100%" viewBox="0 0 2100 2100" version="1.1" xmlns="http://www.w3.org/2000/svg" xmlns:xlink="http://www.w3.org/1999/xlink" xml:space="preserve" xmlns:serif="http://www.serif.com/" style="fill-rule:evenodd;clip-rule:evenodd;stroke-linejoin:round;stroke-miterlimit:2;">
    <g transform="matrix(1,0,0,1,1.42109e-13,-26)">
        <path d="M406,876L254,1182L291,1395L553,1484L1031,1079L901,1423L720,1598L666,1859L1794,1861L1788,1349L1704,1002L1512,658L1259,496L1050,463L993,291L816,445L638,306L607,533L406,876ZM386,1076L326,1212L356,1344L499,1126L386,1076ZM740,608L605,714L603,868L763,714L740,608Z" style="fill:white;"/>
        <path d="M785.605,1407.06L656.283,1532.1C643.043,1544.9 633.966,1561.39 630.234,1579.43L576.234,1840.43C570.655,1867.4 577.496,1895.45 594.867,1916.82C612.238,1938.19 638.297,1950.62 665.837,1950.67L1793.84,1952.67C1818.36,1952.71 1841.88,1942.92 1859.14,1925.5C1876.4,1908.07 1885.95,1884.45 1885.66,1859.93L1879.66,1347.93C1879.58,1341.02 1878.72,1334.14 1877.09,1327.43L1793.09,980.433C1791.14,972.355 1788.09,964.582 1784.04,957.325L1592.04,613.325C1584.68,600.126 1574.16,588.954 1561.43,580.803L1308.43,418.803C1297.77,411.975 1285.8,407.43 1273.3,405.455L1119.45,381.163C1119.45,381.163 1080.01,262.164 1080.01,262.164C1070.37,233.052 1046.8,210.694 1017.22,202.591C987.64,194.488 955.968,201.714 932.831,221.845L812.85,326.235C812.85,326.235 694.418,233.752 694.418,233.752C668.559,213.559 633.88,208.726 603.485,221.079C573.09,233.433 551.616,261.089 547.176,293.597C547.176,293.597 526.004,448.632 518.654,502.453C479.176,569.822 326.912,829.654 326.912,829.654C325.846,831.474 324.842,833.331 323.904,835.22L171.904,1141.22C163.226,1158.69 160.348,1178.47 163.686,1197.69L200.686,1410.69C206.426,1443.74 229.757,1471.01 261.516,1481.8L523.516,1570.8C554.004,1581.15 587.691,1574.75 612.257,1553.94L785.605,1407.06ZM406,876L254,1182L291,1395L553,1484L1031,1079L901,1423L720,1598L666,1859L1794,1861L1788,1349L1704,1002L1512,658L1259,496L1050,463L993,291L816,445L638,306L607,533L406,876ZM386,1076L326,1212L356,1344L499,1126L386,1076ZM740,608L605,714L603,868L763,714L740,608Z"/>
    </g>
    <g transform="matrix(1,0,0,1,1.42109e-13,-26)">
        <path d="M911.561,1859.43L1794,1861L1788,1349L1704,1002L1512,658L1363.35,562.816L1491,674L1635,1008L1679,1349L1644.47,1658.8L1532.24,1777.74L911.561,1859.43Z" style="fill:rgb(225,225,225);"/>
    </g>
</svg>
