<?xml version="1.0" encoding="UTF-8" standalone="no"?>
<!DOCTYPE svg PUBLIC "-//W3C//DTD SVG 1.1//EN" "http://www.w3.org/Graphics/SVG/1.1/DTD/svg11.dtd">
<svg width="100%" height="100%" viewBox="0 0 2100 2100" version="1.1" xmlns="http://www.w3.org/2000/svg" xmlns:xlink="http://www.w3.org/1999/xlink" xml:space="preserve" xmlns:serif="http://www.serif.com/" style="fill-rule:evenodd;clip-rule:evenodd;stroke-linejoin:round;stroke-miterlimit:2;">
    <path d="M491,1793L1615,1792L1510,1334L1298,1127L1375,877L1252,635L1193,366L1050,293L888,374L838,604L706,891L790,1112L577,1329L491,1793Z" style="fill:white;"/>
    <path d="M400.868,1776.3C395.902,1803.09 403.115,1830.7 420.549,1851.65C437.983,1872.59 463.831,1884.69 491.082,1884.67L1615.08,1883.67C1642.98,1883.64 1669.35,1870.91 1686.72,1849.09C1704.09,1827.26 1710.58,1798.71 1704.35,1771.52L1599.35,1313.52C1595.42,1296.36 1586.63,1280.71 1574.04,1268.41C1574.04,1268.41 1463.52,1160.5 1402.08,1100.51C1402.08,1100.51 1462.61,903.982 1462.61,903.982C1469.61,881.245 1467.5,856.675 1456.72,835.466C1456.72,835.466 1362.61,650.316 1339.03,603.914C1327.78,552.611 1282.54,346.361 1282.54,346.361C1276.66,319.575 1259.1,296.825 1234.68,284.356L1091.68,211.356C1065.74,198.115 1035.05,197.987 1009,211.011L847.005,292.011C822.184,304.422 804.321,327.409 798.425,354.527L750.547,574.769C750.547,574.769 622.72,852.697 622.72,852.697C612.443,875.041 611.576,900.578 620.314,923.568C620.314,923.568 658.577,1024.24 683.454,1089.69C683.454,1089.69 511.582,1264.79 511.582,1264.79C498.799,1277.81 490.194,1294.35 486.868,1312.3L400.868,1776.3ZM491,1793L1615,1792L1510,1334L1298,1127L1375,877L1252,635L1193,366L1050,293L888,374L838,604L706,891L790,1112L577,1329L491,1793Z"/>
    <path d="M739.251,1792.78L1189,1741L1342.88,1692.65L1454,1583L1424,1351L1285,1128L1310.56,871.47L1252,635L1375,877L1298,1127L1510,1334L1615,1792L739.251,1792.78Z" style="fill:rgb(225,225,225);"/>
</svg>
