<?xml version="1.0" encoding="UTF-8" standalone="no"?>
<!DOCTYPE svg PUBLIC "-//W3C//DTD SVG 1.1//EN" "http://www.w3.org/Graphics/SVG/1.1/DTD/svg11.dtd">
<svg width="100%" height="100%" viewBox="0 0 2100 2100" version="1.1" xmlns="http://www.w3.org/2000/svg" xmlns:xlink="http://www.w3.org/1999/xlink" xml:space="preserve" xmlns:serif="http://www.serif.com/" style="fill-rule:evenodd;clip-rule:evenodd;stroke-linejoin:round;stroke-miterlimit:2;">
    <g transform="matrix(1.03828,0,0,1.03828,-31.2324,6.57103)">
        <path d="M1050,1796L1580,1769L1522,1528L1448,1414L1619,1206L1742.33,627.456L1821.03,610.981L1802.62,384.391L1612.05,515.071L1654.82,592.432L1409,1050L1434.86,504.39L1515.31,461.064L1426.29,260.376L1271.75,419.002L1330.52,493.829L1176,1020L1096.54,467.578L1174.75,409.56L1052.24,213.923L944.205,404.172L1010.93,468.645L921,1013L762.155,498.796L833.745,428.706L680.884,243.851L594.373,457.407L670.447,509.498L690,1050L431.789,600.835L500.881,519.773L285.429,385.234L261.709,623.887L347.71,636.903L484,1204L627,1411L557,1526L514,1765L1050,1796Z" style="fill:white;"/>
        <path d="M877.423,342.984L748.922,187.588C729.108,163.628 698.153,151.856 667.426,156.595C636.698,161.334 610.729,181.886 599.055,210.702L512.961,423.23L332.191,310.348C306.297,294.178 273.888,292.533 246.49,305.997C219.092,319.461 200.593,346.124 197.574,376.502L173.855,615.155C169.206,661.93 202.022,704.146 248.498,711.18L275.751,715.305C310.445,859.666 398.157,1224.63 398.157,1224.63C400.7,1235.21 405.176,1245.23 411.36,1254.18C411.36,1254.18 479.593,1352.95 521.794,1414.04C521.794,1414.04 481.585,1480.1 481.585,1480.1C475.926,1489.39 472.035,1499.65 470.108,1510.37L427.108,1749.37C422.635,1774.23 429.025,1799.81 444.662,1819.65C460.299,1839.49 483.684,1851.68 508.902,1853.14L1044.9,1884.14C1048.1,1884.33 1051.3,1884.34 1054.49,1884.17L1584.49,1857.17C1610.72,1855.84 1634.99,1842.89 1650.72,1821.86C1666.44,1800.82 1671.98,1773.88 1665.84,1748.34L1607.84,1507.34C1605.49,1497.6 1601.51,1488.33 1596.05,1479.93L1557.24,1420.14C1557.24,1420.14 1687.2,1262.07 1687.2,1262.07C1696.18,1251.15 1702.4,1238.23 1705.35,1224.41L1816.69,702.092C1816.69,702.092 1839.12,697.396 1839.12,697.396C1882.67,688.28 1912.63,648.179 1909.03,603.83L1890.62,377.239C1888.07,345.858 1869,318.209 1840.57,304.676C1812.14,291.142 1778.65,293.772 1752.69,311.579L1593.89,420.472L1506.99,224.577C1495.11,197.792 1470.71,178.647 1441.87,173.475C1413.03,168.303 1383.5,177.779 1363.05,198.767L1231.49,333.812L1127.07,167.066C1110.57,140.717 1081.43,124.988 1050.34,125.656C1019.26,126.325 990.822,143.292 975.47,170.326L877.423,342.984ZM1050,1796L1580,1769L1522,1528L1448,1414L1619,1206L1742.33,627.456L1821.03,610.981L1802.62,384.391L1612.05,515.071L1654.82,592.432L1409,1050L1434.86,504.39L1515.31,461.064L1426.29,260.376L1271.75,419.002L1330.52,493.829L1176,1020L1096.54,467.578L1174.75,409.56L1052.24,213.923L944.205,404.172L1010.93,468.645L921,1013L762.155,498.796L833.745,428.706L680.884,243.851L594.373,457.407L670.447,509.498L690,1050L431.789,600.835L500.881,519.773L285.429,385.234L261.709,623.887L347.71,636.903L484,1204L627,1411L557,1526L514,1765L1050,1796ZM581.534,555.617C578.152,563.298 573.633,570.52 568.073,577.042C568.073,577.042 539.332,610.763 539.332,610.763C539.332,610.763 588.884,696.958 588.884,696.958C588.884,696.958 583.827,557.187 583.827,557.187L581.534,555.617ZM1532.04,552.335L1520.69,558.446C1520.69,558.446 1515.64,664.946 1515.64,664.946C1515.64,664.946 1554.27,593.037 1554.27,593.037L1534.78,557.786C1533.79,555.991 1532.87,554.175 1532.04,552.335ZM901.333,485.515C899.51,487.681 897.569,489.775 895.51,491.792C895.51,491.792 862.407,524.201 862.407,524.201C862.407,524.201 894.892,629.361 894.892,629.361C907.107,555.421 916.271,499.95 916.271,499.95L901.333,485.515ZM1214.97,489.65L1191.43,507.118C1191.43,507.118 1205.62,605.799 1205.62,605.799C1205.62,605.799 1232.99,512.592 1232.99,512.592L1214.97,489.65Z"/>
    </g>
    <path d="M618.942,1845.87L1058.96,1871.32L1609.25,1843.28L1549.03,1593.06L1472.19,1474.69L1649.74,1258.73L1769.53,696.8L1588,1172L1415,1455L1479,1592L1473,1687L1390,1758L1022,1813L618.942,1845.87Z" style="fill:rgb(225,225,225);"/>
</svg>
