<?xml version="1.0" encoding="UTF-8" standalone="no"?>
<!DOCTYPE svg PUBLIC "-//W3C//DTD SVG 1.1//EN" "http://www.w3.org/Graphics/SVG/1.1/DTD/svg11.dtd">
<svg width="100%" height="100%" viewBox="0 0 2100 2100" version="1.1" xmlns="http://www.w3.org/2000/svg" xmlns:xlink="http://www.w3.org/1999/xlink" xml:space="preserve" xmlns:serif="http://www.serif.com/" style="fill-rule:evenodd;clip-rule:evenodd;stroke-linejoin:round;stroke-miterlimit:2;">
    <path d="M1024,1782L356,1771L359,1572L506,1560L521.02,1381.61L608,1256L589,710L458,604L450,318L695,316L706,416L874,419L883,327L1024,316L1024,317L1165,328L1174,420L1342,417L1353,317L1598,319L1590,605L1459,711L1440,1257L1526.98,1382.61L1542,1561L1689,1573L1692,1772L1024,1783L1024,1782Z" style="fill:white;"/>
    <path d="M1009.19,1873.43C1014.55,1874.34 1020.01,1874.75 1025.51,1874.65L1693.51,1863.65C1744.08,1862.82 1784.42,1821.19 1783.66,1770.62L1780.66,1571.62C1779.94,1524.42 1743.51,1485.48 1696.46,1481.64L1626.83,1475.95C1626.83,1475.95 1618.32,1374.92 1618.32,1374.92C1616.98,1358.94 1611.47,1343.6 1602.34,1330.42L1532.67,1229.81C1532.67,1229.81 1549.16,755.965 1549.16,755.965C1549.16,755.965 1647.66,676.26 1647.66,676.26C1668.47,659.42 1680.88,634.324 1681.63,607.563L1689.63,321.563C1690.32,296.947 1681.07,273.088 1663.98,255.363C1646.88,237.638 1623.37,227.537 1598.75,227.336L1353.75,225.336C1306.72,224.952 1267.03,260.226 1261.88,306.977L1259.7,326.788C1259.7,326.788 1256.99,326.837 1256.99,326.837C1256.99,326.837 1256.23,319.075 1256.23,319.075C1251.9,274.83 1216.45,240.069 1172.13,236.611L1044.39,226.646C1035.46,224.592 1026.19,223.884 1016.87,224.611L875.87,235.611C831.549,239.069 796.097,273.83 791.769,318.075L791.01,325.837C791.01,325.837 788.296,325.788 788.296,325.788C788.296,325.788 786.117,305.977 786.117,305.977C780.974,259.226 741.283,223.952 694.252,224.336L449.252,226.336C424.626,226.537 401.118,236.638 384.022,254.363C366.926,272.088 357.681,295.947 358.369,320.563L366.369,606.563C367.118,633.324 379.528,658.42 400.339,675.26L498.843,754.965C498.843,754.965 515.332,1228.81 515.332,1228.81C515.332,1228.81 445.658,1329.42 445.658,1329.42C436.532,1342.6 431.021,1357.94 429.676,1373.92L421.169,1474.95C421.169,1474.95 351.542,1480.64 351.542,1480.64C304.494,1484.48 268.055,1523.42 267.344,1570.62L264.344,1769.62C263.581,1820.19 303.921,1861.82 354.491,1862.65L1009.19,1873.43ZM1024,1782L356,1771L359,1572L506,1560L521.02,1381.61L608,1256L589,710L458,604L450,318L695,316L706,416L874,419L883,327L1024,316L1024,317L1165,328L1174,420L1342,417L1353,317L1598,319L1590,605L1459,711L1440,1257L1526.98,1382.61L1542,1561L1689,1573L1692,1772L1024,1783L1024,1782Z"/>
    <path d="M1485.87,318.085L1598,319L1590,605L1487.76,687.732L1527,567L1485.87,318.085Z" style="fill:rgb(225,225,225);"/>
    <path d="M1462.88,1459.07L1427.83,1669.13L1140.38,1781.08L1692,1772L1689,1573L1542,1561L1526.98,1382.61L1440,1257L1462.88,1459.07Z" style="fill:rgb(225,225,225);"/>
</svg>
