<?xml version="1.0" encoding="UTF-8" standalone="no"?>
<!DOCTYPE svg PUBLIC "-//W3C//DTD SVG 1.1//EN" "http://www.w3.org/Graphics/SVG/1.1/DTD/svg11.dtd">
<svg width="100%" height="100%" viewBox="0 0 2100 2100" version="1.1" xmlns="http://www.w3.org/2000/svg" xmlns:xlink="http://www.w3.org/1999/xlink" xml:space="preserve" xmlns:serif="http://www.serif.com/" style="fill-rule:evenodd;clip-rule:evenodd;stroke-linejoin:round;stroke-miterlimit:2;">
    <path d="M1024,1782L356,1771L359,1572L506,1560L521.02,1381.61L608,1256L589,710L458,604L450,318L695,316L706,416L874,419L883,327L1024,316L1024,317L1165,328L1174,420L1342,417L1353,317L1598,319L1590,605L1459,711L1440,1257L1526.98,1382.61L1542,1561L1689,1573L1692,1772L1024,1783L1024,1782ZM745.382,705.722L733.5,1218.73L790.088,1201.73L803.5,687.732L745.382,705.722ZM1257.5,704.732L1314.5,695.732L1300.5,1218.73L1229.5,1208.73L1257.5,704.732Z" style="fill:white;"/>
    <path d="M1489,316L1598,319L1590,605L1487.76,687.732L1527,567L1489,316Z" style="fill:rgb(245,245,245);"/>
    <path d="M1462.88,1459.07L1427.83,1669.13L1140.38,1781.08L1692,1772L1689,1573L1542,1561L1526.98,1382.61L1440,1257L1462.88,1459.07Z" style="fill:rgb(245,245,245);"/>
</svg>
